<?xml version="1.0" encoding="UTF-8" standalone="no"?>
<!DOCTYPE svg PUBLIC "-//W3C//DTD SVG 1.1//EN" "http://www.w3.org/Graphics/SVG/1.1/DTD/svg11.dtd">
<svg width="100%" height="100%" viewBox="0 0 1024 1024" version="1.1" xmlns="http://www.w3.org/2000/svg" xmlns:xlink="http://www.w3.org/1999/xlink" xml:space="preserve" xmlns:serif="http://www.serif.com/" style="fill-rule:evenodd;clip-rule:evenodd;stroke-linejoin:round;stroke-miterlimit:2;">
    <g transform="matrix(1.43704,0,0,1.43704,-959.15613,-953.179436)">
        <path d="M1177.09,703.589C1216.38,695.845 1241.04,693.257 1276.36,717.062C1285.99,723.608 1294.83,731.255 1302.68,739.848C1318.78,757.34 1351.81,809.564 1352.86,831.759C1356.32,841.043 1357.98,853.497 1360.31,863.69C1362.73,880.969 1363.89,898.151 1365.2,915.542L1365.36,926.222C1365.31,930.794 1366.04,931.255 1364.07,934.62C1331.15,941.294 1298.39,948.785 1265.84,957.087C1261.81,958.078 1239.71,963.354 1237.28,964.619C1233.86,965.232 1229.67,965.748 1226.51,966.951C1229.47,980.736 1227.07,1011.83 1229.09,1015.48C1227.3,1019.92 1228.38,1032.55 1228.02,1038.41C1226.13,1068.88 1212.92,1100.04 1189.97,1120.39C1189.82,1148.37 1189.47,1178.26 1190.1,1206.13C1196.77,1204.11 1203.9,1201.81 1210.64,1200.22C1223.49,1195.7 1242.2,1191.3 1255.91,1187.45C1255.92,1200.49 1255.6,1210.37 1254.89,1223.38C1253.7,1227.04 1253.19,1231.08 1253.86,1234.89C1242.42,1237.65 1229.06,1242.25 1218.81,1244.52C1210.83,1247.36 1202.19,1249.98 1194.01,1252.15C1144.72,1265.23 1094.46,1281.61 1044.98,1293.59C1029.4,1299.8 1010.26,1303.27 994.229,1308.81L930.449,1326.48C920.009,1329.39 902.062,1334.8 891.93,1336.32C883.421,1332.97 840.303,1305.68 830.346,1299.71L683.144,1211.84C680.574,1178.96 683.242,1147.44 682.755,1115.02C681.953,1078.28 681.592,1041.53 681.674,1004.78C681.571,988.113 680.55,962.373 681.762,946.314C687.973,949.874 693.192,952.795 699.63,955.893C710.777,961.878 728.18,970.119 739.996,974.851C744.107,976.927 780.986,994.443 784.026,995.247C793.368,995.044 815.778,1010.65 820.584,1000.74C820.45,996.48 819.429,995.334 817.36,991.425C814.389,989.193 794.988,980.551 790.71,978.595L727.017,949.703C721.028,946.75 712.218,942.263 706.057,940.411C702.755,938.713 699.417,937.171 696.058,935.593C690.678,932.842 688.752,931.695 682.706,930.276C683.459,891.606 686.313,841.353 712.492,810.912C725.019,796.345 745.356,785.183 764.652,783.959C781.996,779.021 802.98,775.879 820.953,772.872C869.425,764.572 918.39,753.253 967.249,744.97C990.216,738.655 1024.14,734.79 1049.73,728.488C1092.13,719.905 1134.58,711.605 1177.09,703.589Z" style="fill:rgb(157,23,53);fill-rule:nonzero;"/>
    </g>
    <g transform="matrix(1.43704,0,0,1.43704,-959.15613,-953.179436)">
        <path d="M681.762,946.314C687.973,949.874 693.192,952.795 699.63,955.893C710.777,961.878 728.18,970.119 739.996,974.851C744.107,976.927 780.986,994.443 784.026,995.247L857.805,1029.74C867.754,1034.36 882.865,1040.82 892.105,1045.77C940.473,1032.85 995.667,1021 1044.82,1009.27L1044.76,1020.89C1044.6,1033.88 1042.76,1047.6 1042.84,1059.54C1048.47,1058.54 1054.06,1056.77 1059.58,1055.18C1061.56,1083.35 1068.43,1105.94 1090.57,1124.88C1091.81,1125.94 1097.19,1130.16 1097.76,1130.77C1102.07,1131.46 1112.46,1136.61 1118.79,1137.9C1148.63,1144 1165.78,1135.67 1189.97,1120.39C1189.82,1148.37 1189.47,1178.26 1190.1,1206.13C1196.77,1204.11 1203.9,1201.81 1210.64,1200.22C1223.49,1195.7 1242.2,1191.3 1255.91,1187.45C1255.92,1200.49 1255.6,1210.37 1254.89,1223.38C1253.7,1227.04 1253.19,1231.08 1253.86,1234.89C1242.42,1237.65 1229.06,1242.25 1218.81,1244.52C1210.83,1247.36 1202.19,1249.98 1194.01,1252.15C1144.72,1265.23 1094.46,1281.61 1044.98,1293.59C1029.4,1299.8 1010.26,1303.27 994.229,1308.81L930.449,1326.48C920.009,1329.39 902.062,1334.8 891.93,1336.32C883.421,1332.97 840.303,1305.68 830.346,1299.71L683.144,1211.84C680.574,1178.96 683.242,1147.44 682.755,1115.02C681.953,1078.28 681.592,1041.53 681.674,1004.78C681.571,988.113 680.55,962.373 681.762,946.314Z" style="fill:rgb(122,11,32);fill-rule:nonzero;"/>
    </g>
    <g transform="matrix(1.43704,0,0,1.43704,-959.15613,-953.179436)">
        <path d="M681.762,946.314C687.973,949.874 693.192,952.795 699.63,955.893C710.777,961.878 728.18,970.119 739.996,974.851C744.107,976.927 780.986,994.443 784.026,995.247L857.805,1029.74C867.754,1034.36 882.865,1040.82 892.105,1045.77C892.467,1084.7 893.421,1128.85 892.789,1167.51C892.121,1180.96 891.928,1195.52 892.262,1208.99C893.309,1251.24 890.922,1294.21 891.93,1336.32C883.421,1332.97 840.303,1305.68 830.346,1299.71L683.144,1211.84C680.574,1178.96 683.242,1147.44 682.755,1115.02C681.953,1078.28 681.592,1041.53 681.674,1004.78C681.571,988.113 680.55,962.373 681.762,946.314Z" style="fill:rgb(122,11,32);fill-rule:nonzero;"/>
    </g>
    <g transform="matrix(1.43704,0,0,1.43704,-959.15613,-953.179436)">
        <path d="M726.017,1017.84C739.401,1024.22 752.657,1030.86 765.777,1037.76C773.538,1041.12 798.611,1053.01 805.652,1057.55C820.872,1063.75 835.16,1072.67 849.839,1079.25L850.009,1259.27C840.061,1253.43 810.934,1237.32 803.035,1231.39C798.705,1230.13 768.423,1212.1 763.759,1208.92C751.938,1202.72 737.735,1193.76 726.063,1186.81L726.017,1017.84Z" style="fill:rgb(235,208,122);fill-rule:nonzero;"/>
    </g>
    <g transform="matrix(1.43704,0,0,1.43704,-959.15613,-953.179436)">
        <path d="M805.652,1057.55C820.872,1063.75 835.16,1072.67 849.839,1079.25L850.009,1259.27C840.061,1253.43 810.934,1237.32 803.035,1231.39L803.65,1231.45C808.425,1231.89 810.437,1233.69 814.514,1236.24C814.722,1219.24 813.504,1198.45 813.51,1180.29L814.495,1063.5C809.32,1061.35 808.832,1062.05 805.652,1057.55Z" style="fill:url(#_Linear1);fill-rule:nonzero;"/>
    </g>
    <g transform="matrix(1.43704,0,0,1.43704,-959.15613,-953.179436)">
        <path d="M726.017,1017.84C739.401,1024.22 752.657,1030.86 765.777,1037.76L764.408,1038.76C761.109,1037.21 755.416,1033.83 752.404,1034.08C748.538,1058.4 752.113,1167.18 751.627,1199.21C751.596,1201.31 763.275,1204.09 763.759,1208.92C751.938,1202.72 737.735,1193.76 726.063,1186.81L726.017,1017.84Z" style="fill:url(#_Linear2);fill-rule:nonzero;"/>
    </g>
    <g transform="matrix(1.43704,0,0,1.43704,-959.15613,-953.179436)">
        <path d="M1189.97,1120.39C1189.82,1148.37 1189.47,1178.26 1190.1,1206.13C1196.77,1204.11 1203.9,1201.81 1210.64,1200.22C1223.49,1195.7 1242.2,1191.3 1255.91,1187.45C1255.92,1200.49 1255.6,1210.37 1254.89,1223.38C1253.7,1227.04 1253.19,1231.08 1253.86,1234.89C1242.42,1237.65 1229.06,1242.25 1218.81,1244.52C1210.83,1247.36 1202.19,1249.98 1194.01,1252.15C1144.72,1265.23 1094.46,1281.61 1044.98,1293.59C1029.4,1299.8 1010.26,1303.27 994.229,1308.81L990.496,1307.23C988.049,1304.06 986.288,1268.34 986.753,1262.13C1006.72,1256.24 1041.62,1245.83 1061.37,1241.64C1065.37,1239.52 1092.61,1232.67 1097.89,1231.36C1097.94,1198.13 1098.4,1163.92 1097.76,1130.77C1102.07,1131.46 1112.46,1136.61 1118.79,1137.9C1148.63,1144 1165.78,1135.67 1189.97,1120.39Z" style="fill:url(#_Linear3);fill-rule:nonzero;"/>
    </g>
    <g transform="matrix(1.43704,0,0,1.43704,-959.15613,-953.179436)">
        <path d="M986.753,1262.13C1006.72,1256.24 1041.62,1245.83 1061.37,1241.64C1055.31,1246.62 1025.53,1253.15 1016.86,1255.3C1016.96,1329.63 1030.98,1284.85 1044.98,1293.59C1029.4,1299.8 1010.26,1303.27 994.229,1308.81L990.496,1307.23C988.049,1304.06 986.288,1268.34 986.753,1262.13Z" style="fill:rgb(233,194,101);fill-rule:nonzero;"/>
    </g>
    <g transform="matrix(1.43704,0,0,1.43704,-959.15613,-953.179436)">
        <path d="M1210.64,1200.22C1223.49,1195.7 1242.2,1191.3 1255.91,1187.45C1255.92,1200.49 1255.6,1210.37 1254.89,1223.38C1253.7,1227.04 1253.19,1231.08 1253.86,1234.89C1242.42,1237.65 1229.06,1242.25 1218.81,1244.52C1222.47,1239.11 1238.11,1239.6 1240.47,1233.44C1243.53,1225.46 1240.1,1202.12 1237.92,1194.31C1230.4,1196.63 1218.37,1200.83 1210.64,1200.22Z" style="fill:rgb(195,146,60);fill-rule:nonzero;"/>
    </g>
    <g transform="matrix(1.43704,0,0,1.43704,-959.15613,-953.179436)">
        <path d="M1044.82,1009.27L1044.76,1020.89C1044.6,1033.88 1042.76,1047.6 1042.84,1059.54C1030.41,1062.69 1017.98,1065.76 1005.52,1068.77L944.953,1083.89C945.194,1102.79 944.827,1121.69 943.855,1140.56C943.357,1144.26 942.936,1147.97 942.592,1151.69C930.615,1161.98 908.796,1164.7 892.789,1167.51C893.421,1128.85 892.467,1084.7 892.105,1045.77C940.473,1032.85 995.667,1021 1044.82,1009.27Z" style="fill:url(#_Linear4);fill-rule:nonzero;"/>
    </g>
    <g transform="matrix(1.43704,0,0,1.43704,-959.15613,-953.179436)">
        <path d="M1005.52,1068.77C1008.5,1059.45 1035.74,1023.37 1044.76,1020.89C1044.6,1033.88 1042.76,1047.6 1042.84,1059.54C1030.41,1062.69 1017.98,1065.76 1005.52,1068.77Z" style="fill:rgb(235,208,122);fill-rule:nonzero;"/>
    </g>
    <g transform="matrix(1.43704,0,0,1.43704,-959.15613,-953.179436)">
        <path d="M942.592,1151.69C942.936,1147.97 943.357,1144.26 943.855,1140.56L945.005,1272.84C959.066,1269.86 972.994,1266.29 986.753,1262.13C986.288,1268.34 988.049,1304.06 990.496,1307.23L994.229,1308.81L930.449,1326.48C920.009,1329.39 902.062,1334.8 891.93,1336.32C890.922,1294.21 893.309,1251.24 892.262,1208.99C891.928,1195.52 892.121,1180.96 892.789,1167.51C908.796,1164.7 930.615,1161.98 942.592,1151.69Z" style="fill:url(#_Linear5);fill-rule:nonzero;"/>
    </g>
    <g transform="matrix(1.43704,0,0,1.43704,-959.15613,-953.179436)">
        <path d="M1177.09,703.589C1216.38,695.845 1241.04,693.257 1276.36,717.062C1285.99,723.608 1294.83,731.255 1302.68,739.848C1318.78,757.34 1351.81,809.564 1352.86,831.759C1356.32,841.043 1357.98,853.497 1360.31,863.69C1362.73,880.969 1363.89,898.151 1365.2,915.542L1365.36,926.222C1365.31,930.794 1366.04,931.255 1364.07,934.62C1331.15,941.294 1298.39,948.785 1265.84,957.087C1261.81,958.078 1239.71,963.354 1237.28,964.619C1233.86,965.232 1229.67,965.748 1226.51,966.951C1222.38,967.806 1218.94,968.668 1214.72,968.882L1213.9,969.509C1209.01,970.692 1203.58,972.286 1198.67,973.615C1196.1,949.438 1201.47,920.622 1182.61,900.557C1173.98,891.382 1161.99,887.429 1149.64,886.977C1142.24,888.253 1140,888.432 1133.01,891.515C1102.1,905.421 1097.61,934.273 1095.08,964.576L1093.88,963.6C1093.56,956.996 1094.88,947.826 1095.38,941.066C1095.76,935.892 1100.89,927.901 1101.62,921.074C1100,922.856 1100.34,922.63 1098.4,924.032C1090.67,920.533 1090.2,913.049 1086.97,905.766L1085.06,905.576C1079.04,910.22 1078.59,921.689 1074.07,925.435C1073.16,915.834 1084.74,899.046 1091.37,892.549C1089.42,882.798 1086.2,874.879 1082.76,865.615C1082.53,865.247 1074.89,847.981 1074.06,846.266C1067.97,833.746 1061.17,821.582 1053.69,809.834C1043.87,796.821 1032.24,779.812 1018.92,770.617C1004.63,756.969 984.66,752.121 967.249,744.97C990.216,738.655 1024.14,734.79 1049.73,728.488C1092.13,719.905 1134.58,711.605 1177.09,703.589Z" style="fill:url(#_Linear6);fill-rule:nonzero;"/>
    </g>
    <g transform="matrix(1.43704,0,0,1.43704,-959.15613,-953.179436)">
        <path d="M1049.73,728.488C1060.37,733.339 1071.45,737.311 1081.73,742.741C1101.57,756.222 1113.52,763.895 1127.62,784.153C1142.13,802.153 1155.6,824.753 1162.71,846.803C1165.66,854.049 1167.34,860.268 1169.48,867.81C1136.77,860.96 1113.86,867.84 1091.37,892.549C1089.42,882.798 1086.2,874.879 1082.76,865.615C1082.53,865.247 1074.89,847.981 1074.06,846.266C1067.97,833.746 1061.17,821.582 1053.69,809.834C1043.87,796.821 1032.24,779.812 1018.92,770.617C1004.63,756.969 984.66,752.121 967.249,744.97C990.216,738.655 1024.14,734.79 1049.73,728.488Z" style="fill:rgb(235,208,122);fill-rule:nonzero;"/>
    </g>
    <g transform="matrix(1.43704,0,0,1.43704,-959.15613,-953.179436)">
        <path d="M1049.73,728.488C1060.37,733.339 1071.45,737.311 1081.73,742.741C1101.57,756.222 1113.52,763.895 1127.62,784.153C1122.66,781.819 1117.09,773.86 1112.35,769.422C1091.08,777.631 1070.77,782.98 1048.54,787.605C1046.72,787.985 1043.32,789.187 1042.07,790.818C1046.15,798.305 1053.35,802.24 1053.69,809.834C1043.87,796.821 1032.24,779.812 1018.92,770.617C1004.63,756.969 984.66,752.121 967.249,744.97C990.216,738.655 1024.14,734.79 1049.73,728.488Z" style="fill:url(#_Linear7);fill-rule:nonzero;"/>
    </g>
    <g transform="matrix(1.43704,0,0,1.43704,-959.15613,-953.179436)">
        <path d="M1162.71,846.803C1165.66,854.049 1167.34,860.268 1169.48,867.81C1136.77,860.96 1113.86,867.84 1091.37,892.549C1089.42,882.798 1086.2,874.879 1082.76,865.615C1087.4,868.87 1084.45,868.98 1090.15,870.452L1090.97,869.935C1094.97,867.502 1094.3,867.579 1098.99,867.607L1099.26,868.3C1096.48,869.766 1090.61,872.45 1088.78,874.501C1112.07,872.44 1144.71,857.603 1166.16,865.683C1166.38,858.383 1161.58,855.375 1162.71,846.803Z" style="fill:url(#_Linear8);fill-rule:nonzero;"/>
    </g>
    <g transform="matrix(1.43704,0,0,1.43704,-959.15613,-953.179436)">
        <path d="M1360.31,863.69C1362.73,880.969 1363.89,898.151 1365.2,915.542L1365.36,926.222C1365.31,930.794 1366.04,931.255 1364.07,934.62C1331.15,941.294 1298.39,948.785 1265.84,957.087C1261.81,958.078 1239.71,963.354 1237.28,964.619C1233.86,965.232 1229.67,965.748 1226.51,966.951C1222.38,967.806 1218.94,968.668 1214.72,968.882L1214.94,951.694C1215.27,933.884 1213.54,921.773 1207.44,905.028C1223.51,901.182 1308.61,883.365 1317.27,877.946L1317.89,874.98L1319.72,872.945C1334.05,871.066 1346.55,867.627 1360.31,863.69Z" style="fill:url(#_Linear9);fill-rule:nonzero;"/>
    </g>
    <g transform="matrix(1.43704,0,0,1.43704,-959.15613,-953.179436)">
        <path d="M1365.2,915.542L1365.36,926.222C1365.375,931.664 1366.337,935.228 1364.07,934.62C1331.15,941.294 1298.39,948.785 1265.84,957.087C1261.81,958.078 1239.71,963.354 1237.28,964.619C1233.86,965.232 1229.67,965.748 1226.51,966.951C1222.38,967.806 1218.94,968.668 1214.72,968.882L1214.94,951.694C1222.13,949.574 1229.53,947.568 1236.87,945.997C1279.7,936.828 1322.36,924.405 1365.2,915.542Z" style="fill:rgb(254,254,254);fill-rule:nonzero;"/>
    </g>
    <g transform="matrix(1.43704,0,0,1.43704,-959.15613,-953.179436)">
        <path d="M1292.03,731.916L1292.75,732.654L1293.97,733.864C1297.68,737.606 1297.77,738.434 1302.68,739.848C1318.78,757.34 1351.81,809.564 1352.86,831.759C1356.32,841.043 1357.98,853.497 1360.31,863.69C1346.55,867.627 1334.05,871.066 1319.72,872.945L1317.89,874.98C1316.45,870.888 1311.78,846.385 1309.76,838.793C1296.59,800.963 1287.17,782.348 1262.26,751.087L1262.63,749.571C1261.53,747.867 1260.78,746.586 1259.81,744.807C1264.89,740.088 1281.99,736.431 1290.63,732.553L1292.03,731.916Z" style="fill:rgb(235,208,122);fill-rule:nonzero;"/>
    </g>
    <g transform="matrix(1.43704,0,0,1.43704,-959.15613,-953.179436)">
        <path d="M1352.86,831.759C1356.32,841.043 1357.98,853.497 1360.31,863.69C1346.55,867.627 1334.05,871.066 1319.72,872.945L1317.89,874.98C1316.45,870.888 1311.78,846.385 1309.76,838.793C1311.39,840.567 1314.21,848.096 1316.01,847.51C1323.14,845.199 1348.34,843.666 1353.23,839.676C1352.77,837.051 1352.62,836.364 1352.75,833.667L1352.86,831.759Z" style="fill:rgb(195,146,60);fill-rule:nonzero;"/>
    </g>
    <g transform="matrix(1.43704,0,0,1.43704,-959.15613,-953.179436)">
        <path d="M1177.09,703.589C1216.38,695.845 1241.04,693.257 1276.36,717.062C1285.99,723.608 1294.83,731.255 1302.68,739.848C1297.77,738.434 1297.68,737.606 1293.97,733.864L1292.75,732.654L1292.03,731.916L1290.63,732.553C1281.99,736.431 1264.89,740.088 1259.81,744.807C1260.78,746.586 1261.53,747.867 1262.63,749.571L1262.26,751.087C1257.76,748.733 1243.73,732.971 1234.13,727.431C1216.4,713.74 1197.74,709.748 1177.09,703.589Z" style="fill:rgb(195,146,60);fill-rule:nonzero;"/>
    </g>
    <g transform="matrix(1.43704,0,0,1.43704,-959.15613,-953.179436)">
        <path d="M1177.09,703.589C1197.74,709.748 1216.4,713.74 1234.13,727.431C1228.32,726.652 1221.6,721.522 1216.17,719.049C1203.64,713.342 1182.23,703.06 1168.22,707.049C1157.28,710.161 1146.69,716.284 1134.41,716.693C1128.18,716.901 1133.85,712.429 1127.94,715.123C1119.59,726.484 1115.25,718.337 1103.87,724.67C1099.64,727.029 1094.37,729.814 1089.66,730.413C1084.64,731.142 1075.13,731.588 1071.7,734.986C1075.72,738.653 1081.39,739.298 1081.73,742.741C1071.45,737.311 1060.37,733.339 1049.73,728.488C1092.13,719.905 1134.58,711.605 1177.09,703.589Z" style="fill:rgb(122,11,32);fill-rule:nonzero;"/>
    </g>
    <g transform="matrix(1.43704,0,0,1.43704,-959.15613,-953.179436)">
        <path d="M764.652,783.959C781.996,779.021 802.98,775.879 820.953,772.872C843.275,783.809 850.809,787.407 870.66,802.891C884.624,816.581 902.305,836.751 909.34,855.255C918.494,872.26 928.339,896.836 932.874,915.929C935.721,925.325 937.441,935.176 938.492,944.932C932.811,946.701 927.098,948.363 921.355,949.919C913.038,951.844 897.135,956.333 889.661,954.468L888.539,954.814L890.112,968.529C891.606,989.598 892.196,1005.59 891.975,1026.67C873.017,1016.14 837.62,1000.11 817.36,991.425C814.389,989.193 794.988,980.551 790.71,978.595L727.017,949.703C721.028,946.75 712.218,942.263 706.057,940.411C702.755,938.713 699.417,937.171 696.058,935.593C690.678,932.842 688.752,931.695 682.706,930.276C683.459,891.606 686.313,841.353 712.492,810.912C725.019,796.345 745.356,785.183 764.652,783.959Z" style="fill:rgb(122,11,32);fill-rule:nonzero;"/>
    </g>
    <g transform="matrix(1.43704,0,0,1.43704,-959.15613,-953.179436)">
        <path d="M856.928,855.958C875.045,853.547 883.717,849.983 900.944,845.747C904.942,848.353 904.473,852.423 909.34,855.255C918.494,872.26 928.339,896.836 932.874,915.929C935.721,925.325 937.441,935.176 938.492,944.932C932.811,946.701 927.098,948.363 921.355,949.919C913.038,951.844 897.135,956.333 889.661,954.468L888.539,954.814C886.697,947.648 885.018,937.21 883.577,929.727C879.927,916.805 876.311,904.366 871.789,891.715C869.736,885.971 864.873,875.943 863.714,870.924C862.927,864.642 860.244,861.421 856.928,855.958Z" style="fill:url(#_Linear10);fill-rule:nonzero;"/>
    </g>
    <g transform="matrix(1.43704,0,0,1.43704,-959.15613,-953.179436)">
        <path d="M932.874,915.929C935.721,925.325 937.441,935.176 938.492,944.932C932.811,946.701 927.098,948.363 921.355,949.919C913.038,951.844 897.135,956.333 889.661,954.468L888.539,954.814C886.697,947.648 885.018,937.21 883.577,929.727C883.82,930.006 884.097,930.259 884.306,930.563C884.653,931.068 885.631,933.012 886.071,933.427C888.933,936.131 927.101,925.81 932.668,924.584L933.384,922.459C932.222,919.895 932.605,918.643 932.874,915.929Z" style="fill:rgb(195,146,60);fill-rule:nonzero;"/>
    </g>
    <g transform="matrix(1.43704,0,0,1.43704,-959.15613,-953.179436)">
        <path d="M764.652,783.959C781.996,779.021 802.98,775.879 820.953,772.872C843.275,783.809 850.809,787.407 870.66,802.891C884.624,816.581 902.305,836.751 909.34,855.255C904.473,852.423 904.942,848.353 900.944,845.747C883.717,849.983 875.045,853.547 856.928,855.958C860.244,861.421 862.927,864.642 863.714,870.924C861.725,868.597 849.959,847.783 847.178,843.245C833.419,820.077 813.969,800.975 788.706,790.847C780.907,787.721 772.489,786.955 764.652,783.959Z" style="fill:url(#_Linear11);fill-rule:nonzero;"/>
    </g>
    <g transform="matrix(1.43704,0,0,1.43704,-959.15613,-953.179436)">
        <path d="M763.98,843.442C776.944,839.904 798.358,848.534 806.168,859.121C832.006,882.585 846.394,930.546 849.375,964.342C835.17,957.954 812.996,948.718 799.834,941.493C794.96,940.352 770.667,928.986 765.257,926.344C753.986,922.099 736.605,913.569 725.7,908.1C728.909,882.987 735.006,850.592 763.98,843.442Z" style="fill:rgb(235,208,122);fill-rule:nonzero;"/>
    </g>
    <g transform="matrix(1.43704,0,0,1.43704,-959.15613,-953.179436)">
        <path d="M806.168,859.121C832.006,882.585 846.394,930.546 849.375,964.342C835.17,957.954 812.996,948.718 799.834,941.493C807.828,941.99 808.798,944.587 814.567,945.789C817.895,923.318 813.263,895.314 814.717,872.235C814.751,871.698 807.379,863.137 806.168,859.121Z" style="fill:url(#_Linear12);fill-rule:nonzero;"/>
    </g>
    <g transform="matrix(1.43704,0,0,1.43704,-959.15613,-953.179436)">
        <path d="M725.7,908.1C728.909,882.987 735.006,850.592 763.98,843.442C759.792,847.082 756.092,848.369 751.49,851.165L751.49,918.396C756.77,920.467 762.459,921.745 765.257,926.344C753.986,922.099 736.605,913.569 725.7,908.1Z" style="fill:url(#_Linear13);fill-rule:nonzero;"/>
    </g>
    <g transform="matrix(1.43704,0,0,1.43704,-959.15613,-953.179436)">
        <path d="M941.739,966.583C983.205,956.424 1031.26,946.689 1071.58,935.415C1071.35,951.896 1071.42,968.379 1071.8,984.858L1071.65,1003.24C1068.02,1003.99 1062.43,1004.96 1059.01,1005.89C1054.2,1007.13 1049.71,1008.27 1044.82,1009.27C995.667,1021 940.473,1032.85 892.105,1045.77C882.865,1040.82 867.754,1034.36 857.805,1029.74L784.026,995.247C793.368,995.044 815.778,1010.65 820.584,1000.74C820.45,996.48 819.429,995.334 817.36,991.425C837.62,1000.11 873.017,1016.14 891.975,1026.67C892.196,1005.59 891.606,989.598 890.112,968.529L888.539,954.814L889.661,954.468C897.135,956.333 913.038,951.844 921.355,949.919C927.098,948.363 932.811,946.701 938.492,944.932C939.868,952.558 941.001,958.893 941.739,966.583Z" style="fill:url(#_Linear14);fill-rule:nonzero;"/>
    </g>
    <g transform="matrix(1.43704,0,0,1.43704,-959.15613,-953.179436)">
        <path d="M891.975,1026.67C908.349,1024.25 928.369,1018.39 944.844,1014.66C970.945,1008.76 997.179,1002.23 1023.26,996.206C1037.28,992.968 1057.86,986.703 1071.8,984.858L1071.65,1003.24C1068.02,1003.99 1062.43,1004.96 1059.01,1005.89C1054.2,1007.13 1049.71,1008.27 1044.82,1009.27C995.667,1021 940.473,1032.85 892.105,1045.77C882.865,1040.82 867.754,1034.36 857.805,1029.74L784.026,995.247C793.368,995.044 815.778,1010.65 820.584,1000.74C820.45,996.48 819.429,995.334 817.36,991.425C837.62,1000.11 873.017,1016.14 891.975,1026.67Z" style="fill:rgb(254,254,254);fill-rule:nonzero;"/>
    </g>
    <g transform="matrix(1.43704,0,0,1.43704,-959.15613,-953.179436)">
        <path d="M888.539,954.814L889.661,954.468C897.135,956.333 913.038,951.844 921.355,949.919C912.082,956.934 894.215,960.952 890.112,968.529L888.539,954.814Z" style="fill:rgb(233,194,101);fill-rule:nonzero;"/>
    </g>
    <g transform="matrix(1.43704,0,0,1.43704,-959.15613,-953.179436)">
        <path d="M1133.01,891.515C1140,888.432 1142.24,888.253 1149.64,886.977C1156.24,890.133 1154.69,897.844 1153.74,904.372C1151.9,906.372 1153.06,905.713 1150.38,906.63C1184.54,909.223 1180.07,953.296 1180.06,977.695C1174.89,979.012 1168.57,980.422 1163.63,982.181C1154.89,983.316 1133.84,988.2 1124.95,991.062C1122.51,994.901 1116.56,994.519 1116.64,995.864C1117.02,1001.86 1118.13,1013.44 1118.46,1019.19C1119.11,1030.6 1117.46,1040.61 1117.04,1051.49C1116.64,1062.03 1117.79,1072.75 1117.28,1083.52C1117.02,1088.97 1115.36,1106.32 1116.14,1109.87C1119.16,1111.62 1122.59,1113.23 1124.98,1115.59C1078.62,1105.69 1083.56,1035.43 1085.09,1000.44L1095.34,997.524C1095.43,986.541 1095.35,975.556 1095.08,964.576C1097.61,934.273 1102.1,905.421 1133.01,891.515Z" style="fill:url(#_Linear15);fill-rule:nonzero;"/>
    </g>
    <g transform="matrix(1.43704,0,0,1.43704,-959.15613,-953.179436)">
        <path d="M1150.38,906.63C1184.54,909.223 1180.07,953.296 1180.06,977.695C1174.89,979.012 1168.57,980.422 1163.63,982.181C1154.89,983.316 1133.84,988.2 1124.95,991.062C1121.46,991.975 1120.58,992.134 1117,992.516L1115.93,991.138C1114,978.65 1115.25,949.179 1117.8,936.455C1120.6,922.491 1126.93,916.749 1138.27,909.367C1142.81,907.999 1145.75,907.468 1150.38,906.63Z" style="fill:rgb(122,11,32);fill-rule:nonzero;"/>
    </g>
    <g transform="matrix(1.43704,0,0,1.43704,-959.15613,-953.179436)">
        <path d="M1133.01,891.515C1140,888.432 1142.24,888.253 1149.64,886.977C1156.24,890.133 1154.69,897.844 1153.74,904.372C1151.9,906.372 1153.06,905.713 1150.38,906.63C1145.75,907.468 1142.81,907.999 1138.27,909.367L1138.47,908.194L1139.91,906.802C1140.68,902.054 1141.87,898.511 1140.09,894.23C1136.77,890.952 1138.45,891.85 1133.01,891.515Z" style="fill:rgb(235,208,122);fill-rule:nonzero;"/>
    </g>
    <g transform="matrix(1.43704,0,0,1.43704,-959.15613,-953.179436)">
        <path d="M1163.63,982.181C1169.16,982.802 1172.14,981.576 1177.51,980.157C1177.3,991.202 1179.16,1101.8 1178.59,1103.21C1175.01,1105.82 1170.97,1108.09 1168.81,1111.71C1157.13,1118.02 1137.33,1121.46 1124.98,1115.59C1122.59,1113.23 1119.16,1111.62 1116.14,1109.87C1115.36,1106.32 1117.02,1088.97 1117.28,1083.52C1117.79,1072.75 1116.64,1062.03 1117.04,1051.49C1117.46,1040.61 1119.11,1030.6 1118.46,1019.19C1118.13,1013.44 1117.02,1001.86 1116.64,995.864C1116.56,994.519 1122.51,994.901 1124.95,991.062C1133.84,988.2 1154.89,983.316 1163.63,982.181Z" style="fill:rgb(235,208,122);fill-rule:nonzero;"/>
    </g>
    <g transform="matrix(1.43704,0,0,1.43704,-959.15613,-953.179436)">
        <path d="M1150.31,1013.08C1173.93,1012.13 1172.23,1034.71 1160.94,1049.22C1163.98,1059.72 1165.55,1069.1 1167.21,1079.82L1152.77,1082.74C1148.48,1083.87 1143.01,1084.79 1138.57,1085.67L1143.67,1051.69C1128.33,1036.56 1130.93,1022.28 1150.31,1013.08Z" style="fill:rgb(122,11,32);fill-rule:nonzero;"/>
    </g>
    <g transform="matrix(1.43704,0,0,1.43704,-959.15613,-953.179436)">
        <path d="M1149.64,886.977C1161.99,887.429 1173.98,891.382 1182.61,900.557C1201.47,920.622 1196.1,949.438 1198.67,973.615C1203.58,972.286 1209.01,970.692 1213.9,969.509C1207.71,1015.32 1226.66,1068.29 1182.74,1103.06C1178.12,1106.72 1174.26,1109.27 1168.81,1111.71C1170.97,1108.09 1175.01,1105.82 1178.59,1103.21C1179.16,1101.8 1177.3,991.202 1177.51,980.157C1172.14,981.576 1169.16,982.802 1163.63,982.181C1168.57,980.422 1174.89,979.012 1180.06,977.695C1180.07,953.296 1184.54,909.223 1150.38,906.63C1153.06,905.713 1151.9,906.372 1153.74,904.372C1154.69,897.844 1156.24,890.133 1149.64,886.977Z" style="fill:url(#_Linear16);fill-rule:nonzero;"/>
    </g>
    <g transform="matrix(1.43704,0,0,1.43704,-959.15613,-953.179436)">
        <path d="M820.953,772.872C869.425,764.572 918.39,753.253 967.249,744.97C984.66,752.121 1004.63,756.969 1018.92,770.617C1011.49,769.922 1000.35,757.238 994.593,758.05C965.992,762.089 936.961,768.047 908.941,775.043C896.146,778.238 863.875,778.961 854.733,787.482C856.7,793.773 869.36,795.696 870.66,802.891C850.809,787.407 843.275,783.809 820.953,772.872Z" style="fill:rgb(122,11,32);fill-rule:nonzero;"/>
    </g>
    <g transform="matrix(1.43704,0,0,1.43704,-959.15613,-953.179436)">
        <path d="M1044.82,1009.27C1049.71,1008.27 1054.2,1007.13 1059.01,1005.89C1059,1016.42 1058.35,1046.14 1059.58,1055.18C1054.06,1056.77 1048.47,1058.54 1042.84,1059.54C1042.76,1047.6 1044.6,1033.88 1044.76,1020.89L1044.82,1009.27Z" style="fill:rgb(233,194,101);fill-rule:nonzero;"/>
    </g>
    <g transform="matrix(1.43704,0,0,1.43704,-959.15613,-953.179436)">
        <path d="M1365.36,926.222C1366.42,931.432 1365.59,993.439 1365.57,1001.72C1364.86,1068.57 1365.02,1135.43 1366.03,1202.27C1329.1,1213.6 1290.05,1223.56 1253.86,1234.89C1253.19,1231.08 1253.7,1227.04 1254.89,1223.38C1255.6,1210.37 1255.92,1200.49 1255.91,1187.45C1242.2,1191.3 1223.49,1195.7 1210.64,1200.22C1203.9,1201.81 1196.77,1204.11 1190.1,1206.13C1189.47,1178.26 1189.82,1148.37 1189.97,1120.39C1212.92,1100.04 1226.13,1068.88 1228.02,1038.41C1228.38,1032.55 1227.3,1019.92 1229.09,1015.48C1227.07,1011.83 1229.47,980.736 1226.51,966.951C1229.67,965.748 1233.86,965.232 1237.28,964.619C1239.71,963.354 1261.81,958.078 1265.84,957.087C1298.39,948.785 1331.15,941.294 1364.07,934.62C1366.04,931.255 1365.31,930.794 1365.36,926.222Z" style="fill:rgb(122,11,32);fill-rule:nonzero;"/>
    </g>
    <g transform="matrix(1.43704,0,0,1.43704,-959.15613,-953.179436)">
        <path d="M1365.36,926.222C1366.42,931.432 1365.59,993.439 1365.57,1001.72C1364.86,1068.57 1365.02,1135.43 1366.03,1202.27C1329.1,1213.6 1290.05,1223.56 1253.86,1234.89C1253.19,1231.08 1253.7,1227.04 1254.89,1223.38C1255.6,1210.37 1255.92,1200.49 1255.91,1187.45C1260.79,1186.22 1265.67,1184.96 1270.54,1183.67C1273.96,1182.02 1315.58,1170.56 1321.95,1168.68L1321.91,991.2C1302.3,997.113 1279.01,1002.49 1258.9,1007.47C1248.91,1009.97 1238.91,1012.35 1229.09,1015.48C1227.07,1011.83 1229.47,980.736 1226.51,966.951C1229.67,965.748 1233.86,965.232 1237.28,964.619C1239.71,963.354 1261.81,958.078 1265.84,957.087C1298.39,948.785 1331.15,941.294 1364.07,934.62C1366.04,931.255 1365.31,930.794 1365.36,926.222Z" style="fill:url(#_Linear17);fill-rule:nonzero;"/>
    </g>
    <g transform="matrix(1.43704,0,0,1.43704,-959.15613,-953.179436)">
        <path d="M1226.51,966.951C1229.67,965.748 1233.86,965.232 1237.28,964.619C1234.4,966.698 1232.6,967.315 1229.25,968.556C1228.86,970.906 1230.81,995.747 1231.57,997.274C1235.6,991.599 1228.34,996.443 1234.37,990.294L1235.93,990.74C1238.95,999.958 1242.53,998.533 1250.43,1004.19C1253.24,1006.2 1255.81,1005.09 1258.9,1007.47C1248.91,1009.97 1238.91,1012.35 1229.09,1015.48C1227.07,1011.83 1229.47,980.736 1226.51,966.951Z" style="fill:rgb(233,194,101);fill-rule:nonzero;"/>
    </g>
    <g transform="matrix(1.43704,0,0,1.43704,-959.15613,-953.179436)">
        <path d="M1255.91,1187.45C1260.79,1186.22 1265.67,1184.96 1270.54,1183.67C1267.3,1187.58 1261.98,1186.72 1261.59,1188.1C1258.08,1200.32 1261.68,1210.75 1254.89,1223.38C1255.6,1210.37 1255.92,1200.49 1255.91,1187.45Z" style="fill:rgb(233,194,101);fill-rule:nonzero;"/>
    </g>
    <g transform="matrix(1.43704,0,0,1.43704,-959.15613,-953.179436)">
        <path d="M708.501,954.716C709.994,953.163 711.51,951.631 713.047,950.122L713.043,948.156L710.627,946.538L712.034,945.86C718.713,945.612 720.045,952.216 727.017,949.703L790.71,978.595C794.988,980.551 814.389,989.193 817.36,991.425C819.429,995.334 820.45,996.48 820.584,1000.74C815.778,1010.65 793.368,995.044 784.026,995.247C780.986,994.443 744.107,976.927 739.996,974.851C741.163,973.414 740.843,974.218 741.03,972.472C737.152,969.272 715.555,958.891 708.501,954.716Z" style="fill:url(#_Linear18);fill-rule:nonzero;"/>
    </g>
    <g transform="matrix(1.43704,0,0,1.43704,-959.15613,-953.179436)">
        <path d="M706.057,940.411C712.218,942.263 721.028,946.75 727.017,949.703C720.045,952.216 718.713,945.612 712.034,945.86L710.627,946.538L713.043,948.156L713.047,950.122C711.51,951.631 709.994,953.163 708.501,954.716L707.345,954.942C704.825,953.92 704.622,953.778 701.967,953.362C699.073,952.005 697.417,951.567 695.501,949.008C694.824,941.876 700.339,940.802 706.057,940.411Z" style="fill:rgb(254,254,254);fill-rule:nonzero;"/>
    </g>
    <g transform="matrix(1.43704,0,0,1.43704,-959.15613,-953.179436)">
        <path d="M696.058,935.593C699.417,937.171 702.755,938.713 706.057,940.411C700.339,940.802 694.824,941.876 695.501,949.008C697.417,951.567 699.073,952.005 701.967,953.362L699.63,955.893C693.192,952.795 687.973,949.874 681.762,946.314C683.308,943.452 684.87,940.599 686.45,937.756C690.714,935.069 690.281,935.949 696.058,935.593Z" style="fill:rgb(254,254,254);fill-rule:nonzero;"/>
    </g>
    <g transform="matrix(1.43704,0,0,1.43704,-959.15613,-953.179436)">
        <path d="M701.967,953.362C704.622,953.778 704.825,953.92 707.345,954.942L708.501,954.716C715.555,958.891 737.152,969.272 741.03,972.472C740.843,974.218 741.163,973.414 739.996,974.851C728.18,970.119 710.777,961.878 699.63,955.893L701.967,953.362Z" style="fill:rgb(254,254,254);fill-rule:nonzero;"/>
    </g>
    <defs>
        <linearGradient id="_Linear1" x1="0" y1="0" x2="1" y2="0" gradientUnits="userSpaceOnUse" gradientTransform="matrix(-33.996,-0.18,0.18,-33.996,847.498,1159.59)"><stop offset="0" style="stop-color:rgb(181,125,48);stop-opacity:1"/><stop offset="1" style="stop-color:rgb(225,186,88);stop-opacity:1"/></linearGradient>
        <linearGradient id="_Linear2" x1="0" y1="0" x2="1" y2="0" gradientUnits="userSpaceOnUse" gradientTransform="matrix(23.107,0.14,-0.14,23.107,727.469,1109.43)"><stop offset="0" style="stop-color:rgb(188,135,51);stop-opacity:1"/><stop offset="1" style="stop-color:rgb(223,182,87);stop-opacity:1"/></linearGradient>
        <linearGradient id="_Linear3" x1="0" y1="0" x2="1" y2="0" gradientUnits="userSpaceOnUse" gradientTransform="matrix(-125.42,-118.43,118.43,-125.42,1188.08,1289.92)"><stop offset="0" style="stop-color:rgb(219,178,84);stop-opacity:1"/><stop offset="1" style="stop-color:rgb(252,238,156);stop-opacity:1"/></linearGradient>
        <linearGradient id="_Linear4" x1="0" y1="0" x2="1" y2="0" gradientUnits="userSpaceOnUse" gradientTransform="matrix(77.735,63.43,-63.43,77.735,903.696,1035.12)"><stop offset="0" style="stop-color:rgb(202,148,48);stop-opacity:1"/><stop offset="1" style="stop-color:rgb(251,232,144);stop-opacity:1"/></linearGradient>
        <linearGradient id="_Linear5" x1="0" y1="0" x2="1" y2="0" gradientUnits="userSpaceOnUse" gradientTransform="matrix(103.731,6.85,-6.85,103.731,889.14,1241.56)"><stop offset="0" style="stop-color:rgb(183,131,49);stop-opacity:1"/><stop offset="1" style="stop-color:rgb(231,192,95);stop-opacity:1"/></linearGradient>
        <linearGradient id="_Linear6" x1="0" y1="0" x2="1" y2="0" gradientUnits="userSpaceOnUse" gradientTransform="matrix(207.63,-103.729,103.729,207.63,1074.7,884.372)"><stop offset="0" style="stop-color:rgb(126,13,33);stop-opacity:1"/><stop offset="1" style="stop-color:rgb(164,24,57);stop-opacity:1"/></linearGradient>
        <linearGradient id="_Linear7" x1="0" y1="0" x2="1" y2="0" gradientUnits="userSpaceOnUse" gradientTransform="matrix(10.67,55.615,-55.615,10.67,1037.34,732.231)"><stop offset="0" style="stop-color:rgb(187,134,49);stop-opacity:1"/><stop offset="1" style="stop-color:rgb(215,172,76);stop-opacity:1"/></linearGradient>
        <linearGradient id="_Linear8" x1="0" y1="0" x2="1" y2="0" gradientUnits="userSpaceOnUse" gradientTransform="matrix(-2.47,-13.754,13.754,-2.47,1102.36,886.134)"><stop offset="0" style="stop-color:rgb(206,147,74);stop-opacity:1"/><stop offset="1" style="stop-color:rgb(217,172,87);stop-opacity:1"/></linearGradient>
        <linearGradient id="_Linear9" x1="0" y1="0" x2="1" y2="0" gradientUnits="userSpaceOnUse" gradientTransform="matrix(-10.7,-51.523,51.523,-10.7,1292.53,932.724)"><stop offset="0" style="stop-color:rgb(186,138,53);stop-opacity:1"/><stop offset="1" style="stop-color:rgb(225,180,87);stop-opacity:1"/></linearGradient>
        <linearGradient id="_Linear10" x1="0" y1="0" x2="1" y2="0" gradientUnits="userSpaceOnUse" gradientTransform="matrix(-12.53,-86.16,86.16,-12.53,901.225,932.804)"><stop offset="0" style="stop-color:rgb(214,174,95);stop-opacity:1"/><stop offset="1" style="stop-color:rgb(252,238,161);stop-opacity:1"/></linearGradient>
        <linearGradient id="_Linear11" x1="0" y1="0" x2="1" y2="0" gradientUnits="userSpaceOnUse" gradientTransform="matrix(0.302,80.153,-80.153,0.302,836.353,774.927)"><stop offset="0" style="stop-color:rgb(183,127,42);stop-opacity:1"/><stop offset="1" style="stop-color:rgb(232,196,110);stop-opacity:1"/></linearGradient>
        <linearGradient id="_Linear12" x1="0" y1="0" x2="1" y2="0" gradientUnits="userSpaceOnUse" gradientTransform="matrix(-30.948,0.223,-0.223,-30.948,845.74,916.894)"><stop offset="0" style="stop-color:rgb(180,121,47);stop-opacity:1"/><stop offset="1" style="stop-color:rgb(219,176,83);stop-opacity:1"/></linearGradient>
        <linearGradient id="_Linear13" x1="0" y1="0" x2="1" y2="0" gradientUnits="userSpaceOnUse" gradientTransform="matrix(22.519,-0.213,0.213,22.519,727.784,884.201)"><stop offset="0" style="stop-color:rgb(187,133,53);stop-opacity:1"/><stop offset="1" style="stop-color:rgb(222,179,87);stop-opacity:1"/></linearGradient>
        <linearGradient id="_Linear14" x1="0" y1="0" x2="1" y2="0" gradientUnits="userSpaceOnUse" gradientTransform="matrix(-15.174,-64.343,64.343,-15.174,986.741,1002.72)"><stop offset="0" style="stop-color:rgb(187,139,52);stop-opacity:1"/><stop offset="1" style="stop-color:rgb(234,193,99);stop-opacity:1"/></linearGradient>
        <linearGradient id="_Linear15" x1="0" y1="0" x2="1" y2="0" gradientUnits="userSpaceOnUse" gradientTransform="matrix(55.95,-0.691,0.691,55.95,1085.32,999.996)"><stop offset="0" style="stop-color:rgb(190,133,47);stop-opacity:1"/><stop offset="1" style="stop-color:rgb(255,241,144);stop-opacity:1"/></linearGradient>
        <linearGradient id="_Linear16" x1="0" y1="0" x2="1" y2="0" gradientUnits="userSpaceOnUse" gradientTransform="matrix(-55.53,0.365,-0.365,-55.53,1211.15,994.72)"><stop offset="0" style="stop-color:rgb(190,132,49);stop-opacity:1"/><stop offset="1" style="stop-color:rgb(252,224,123);stop-opacity:1"/></linearGradient>
        <linearGradient id="_Linear17" x1="0" y1="0" x2="1" y2="0" gradientUnits="userSpaceOnUse" gradientTransform="matrix(-135.65,3.16,-3.16,-135.65,1366.39,1082.63)"><stop offset="0" style="stop-color:rgb(185,133,51);stop-opacity:1"/><stop offset="1" style="stop-color:rgb(238,198,100);stop-opacity:1"/></linearGradient>
        <linearGradient id="_Linear18" x1="0" y1="0" x2="1" y2="0" gradientUnits="userSpaceOnUse" gradientTransform="matrix(-2.19,52.713,-52.713,-2.19,765.094,947.164)"><stop offset="0" style="stop-color:rgb(254,253,252);stop-opacity:1"/><stop offset="1" style="stop-color:white;stop-opacity:1"/></linearGradient>
    </defs>
</svg>
